<mxfile host="app.diagrams.net" modified="2022-11-02T06:01:03.202Z" agent="5.0 (X11; Linux x86_64) AppleWebKit/537.36 (KHTML, like Gecko) Chrome/107.0.0.0 Safari/537.36" etag="Fn_kgmI_4-HoWEXo7ysy" version="20.5.1" type="github">
  <diagram id="xn9U-B0csEcdAIWwwBOO" name="ページ1">
    <mxGraphModel dx="981" dy="574" grid="1" gridSize="10" guides="1" tooltips="1" connect="1" arrows="1" fold="1" page="1" pageScale="1" pageWidth="827" pageHeight="1169" math="0" shadow="0">
      <root>
        <mxCell id="0" />
        <mxCell id="1" parent="0" />
        <mxCell id="wphsssCyiTnLDFVFWFAH-1" value="" style="ellipse;whiteSpace=wrap;html=1;aspect=fixed;fillColor=#000000;" parent="1" vertex="1">
          <mxGeometry x="450" y="555" width="30" height="30" as="geometry" />
        </mxCell>
        <mxCell id="wphsssCyiTnLDFVFWFAH-3" value="&lt;font style=&quot;font-size: 30px;&quot;&gt;1&lt;/font&gt;" style="ellipse;whiteSpace=wrap;html=1;aspect=fixed;" parent="1" vertex="1">
          <mxGeometry x="480" y="545" width="80" height="80" as="geometry" />
        </mxCell>
        <mxCell id="wphsssCyiTnLDFVFWFAH-4" value="&lt;font color=&quot;#ff0000&quot; style=&quot;font-size: 30px;&quot;&gt;1&lt;/font&gt;" style="ellipse;whiteSpace=wrap;html=1;aspect=fixed;fillColor=#FFFFFF;" parent="1" vertex="1">
          <mxGeometry x="290" y="290" width="80" height="80" as="geometry" />
        </mxCell>
        <mxCell id="wphsssCyiTnLDFVFWFAH-5" value="&lt;font style=&quot;font-size: 30px;&quot;&gt;2&lt;/font&gt;" style="ellipse;whiteSpace=wrap;html=1;aspect=fixed;" parent="1" vertex="1">
          <mxGeometry x="210" y="410" width="80" height="80" as="geometry" />
        </mxCell>
        <mxCell id="wphsssCyiTnLDFVFWFAH-8" style="edgeStyle=orthogonalEdgeStyle;rounded=0;orthogonalLoop=1;jettySize=auto;html=1;exitX=1;exitY=0.5;exitDx=0;exitDy=0;entryX=0;entryY=0;entryDx=0;entryDy=0;fontSize=30;fontColor=#FF0000;" parent="1" source="wphsssCyiTnLDFVFWFAH-1" target="wphsssCyiTnLDFVFWFAH-1" edge="1">
          <mxGeometry relative="1" as="geometry" />
        </mxCell>
        <mxCell id="wphsssCyiTnLDFVFWFAH-9" value="&lt;span style=&quot;font-size: 30px;&quot;&gt;3&lt;/span&gt;" style="ellipse;whiteSpace=wrap;html=1;aspect=fixed;" parent="1" vertex="1">
          <mxGeometry x="320" y="160" width="80" height="80" as="geometry" />
        </mxCell>
        <mxCell id="wphsssCyiTnLDFVFWFAH-10" value="&lt;font style=&quot;font-size: 30px;&quot;&gt;4&lt;/font&gt;" style="ellipse;whiteSpace=wrap;html=1;aspect=fixed;" parent="1" vertex="1">
          <mxGeometry x="580" y="260" width="80" height="80" as="geometry" />
        </mxCell>
        <mxCell id="wphsssCyiTnLDFVFWFAH-11" value="&lt;font color=&quot;#ff0000&quot; style=&quot;font-size: 30px;&quot;&gt;2&lt;/font&gt;" style="ellipse;whiteSpace=wrap;html=1;aspect=fixed;fillColor=#FFFFFF;" parent="1" vertex="1">
          <mxGeometry x="530" y="400" width="80" height="80" as="geometry" />
        </mxCell>
        <mxCell id="77AZ8KUObjL5AP7mxi2a-1" value="" style="endArrow=classic;html=1;rounded=0;exitX=0.052;exitY=0.237;exitDx=0;exitDy=0;exitPerimeter=0;entryX=1;entryY=0.625;entryDx=0;entryDy=0;entryPerimeter=0;strokeWidth=6;" parent="1" source="wphsssCyiTnLDFVFWFAH-1" target="wphsssCyiTnLDFVFWFAH-5" edge="1">
          <mxGeometry width="50" height="50" relative="1" as="geometry">
            <mxPoint x="390" y="430" as="sourcePoint" />
            <mxPoint x="440" y="380" as="targetPoint" />
          </mxGeometry>
        </mxCell>
        <mxCell id="77AZ8KUObjL5AP7mxi2a-3" value="" style="curved=1;endArrow=classic;html=1;rounded=0;strokeWidth=6;dashed=1;" parent="1" edge="1">
          <mxGeometry width="50" height="50" relative="1" as="geometry">
            <mxPoint x="560" y="585" as="sourcePoint" />
            <mxPoint x="720" y="410" as="targetPoint" />
            <Array as="points">
              <mxPoint x="700" y="560" />
              <mxPoint x="740" y="490" />
            </Array>
          </mxGeometry>
        </mxCell>
        <mxCell id="77AZ8KUObjL5AP7mxi2a-4" value="Pass" style="text;html=1;strokeColor=none;fillColor=none;align=center;verticalAlign=middle;whiteSpace=wrap;rounded=0;" parent="1" vertex="1">
          <mxGeometry x="370" y="490" width="60" height="30" as="geometry" />
        </mxCell>
        <mxCell id="77AZ8KUObjL5AP7mxi2a-5" value="Dribble" style="text;html=1;strokeColor=none;fillColor=none;align=center;verticalAlign=middle;whiteSpace=wrap;rounded=0;" parent="1" vertex="1">
          <mxGeometry x="670" y="560" width="60" height="30" as="geometry" />
        </mxCell>
        <mxCell id="OKJ5bo4SG5owmQdN7gM3-1" value="" style="endArrow=classic;html=1;rounded=0;exitX=1;exitY=0;exitDx=0;exitDy=0;strokeWidth=6;" edge="1" parent="1" source="wphsssCyiTnLDFVFWFAH-3">
          <mxGeometry width="50" height="50" relative="1" as="geometry">
            <mxPoint x="531.56" y="532.1100000000001" as="sourcePoint" />
            <mxPoint x="670" y="340" as="targetPoint" />
          </mxGeometry>
        </mxCell>
        <mxCell id="OKJ5bo4SG5owmQdN7gM3-2" value="Pass" style="text;html=1;strokeColor=none;fillColor=none;align=center;verticalAlign=middle;whiteSpace=wrap;rounded=0;" vertex="1" parent="1">
          <mxGeometry x="510" y="500" width="60" height="30" as="geometry" />
        </mxCell>
      </root>
    </mxGraphModel>
  </diagram>
</mxfile>
